<svg width="111" height="130" viewBox="0 0 111 130" fill="none" xmlns="http://www.w3.org/2000/svg">
<g clip-path="url(#clip0_89158_2094)">
<path d="M77.8433 0.0307902C57.3757 2.88055 48.7035 16.2607 48.7035 16.2607C47.6252 13.5294 46.2375 10.9205 44.5656 8.48101C44.4442 8.30838 44.2695 8.17662 44.0662 8.10419C43.863 8.03177 43.6411 8.02232 43.432 8.07717C41.0904 8.7799 38.9146 9.91626 37.027 11.4222C36.9197 11.5055 36.8309 11.6087 36.7656 11.7253C36.7002 11.8421 36.6598 11.9702 36.6464 12.1021C36.6332 12.234 36.6473 12.3672 36.6882 12.4938C36.729 12.6204 36.7957 12.7379 36.8843 12.8395C40.103 16.6819 42.7202 20.956 44.6528 25.5262C44.6645 25.5337 44.6783 25.5378 44.6924 25.5378C44.7065 25.5378 44.7203 25.5337 44.7321 25.5262C48.1769 25.0241 51.656 24.7694 55.1403 24.7642H56.028C57.5739 22.905 63.8283 15.5749 69.2821 11.6127C69.409 11.5107 69.5711 11.4582 69.7363 11.466C69.9015 11.4738 70.0576 11.5409 70.1736 11.6543C70.2895 11.7677 70.3568 11.9189 70.362 12.0778C70.3672 12.2367 70.31 12.3916 70.2016 12.5118C67.451 15.8645 63.86 19.8038 60.1422 24.81C60.134 24.8219 60.129 24.8358 60.128 24.8501C60.1269 24.8645 60.1297 24.8788 60.1361 24.8918C60.1424 24.9048 60.1521 24.9161 60.1644 24.9244C60.1766 24.9328 60.1908 24.9379 60.2056 24.9395C63.9454 25.2008 67.6569 25.7538 71.3036 26.593C71.3145 26.5983 71.3268 26.6012 71.3391 26.6012C71.3516 26.6012 71.3638 26.5983 71.3748 26.593C80.0946 19.3314 81.6166 8.85438 81.7434 3.33011C81.748 2.85627 81.6464 2.38704 81.4454 1.95435C81.2445 1.52164 80.9489 1.13564 80.5789 0.82258C80.2088 0.509519 79.7729 0.276757 79.3009 0.140128C78.8288 0.00349822 78.3317 -0.0337977 77.8433 0.0307902Z" fill="#C4C4C4"/>
<path d="M55.1564 28.4218C24.7007 28.4218 0 48.7739 0 73.8807C0 89.3944 9.4332 103.087 23.8288 111.293L19.4926 125.413C19.3223 125.965 19.3263 126.553 19.5042 127.103C19.6821 127.653 20.0258 128.141 20.4917 128.502C20.9577 128.865 21.5251 129.087 22.122 129.138C22.7188 129.191 23.3183 129.071 23.8445 128.796L43.8683 118.403C47.5957 119.025 51.3731 119.331 55.1564 119.317C85.6201 119.317 110.321 98.9647 110.321 73.8578C110.321 48.751 85.6201 28.4218 55.1564 28.4218ZM61.0065 103.917C41.1889 103.917 25.1128 90.6669 25.1128 74.3302C25.1128 57.9937 41.181 44.7431 61.0065 44.7431C80.8321 44.7431 96.9081 57.9861 96.9081 74.3302C96.9081 90.6744 80.8321 103.917 61.0065 103.917Z" fill="#C4C4C4"/>
<path d="M64.3117 82.8185C66.3387 82.8185 67.982 81.2391 67.982 79.2906C67.982 77.3423 66.3387 75.7627 64.3117 75.7627C62.2847 75.7627 60.6416 77.3423 60.6416 79.2906C60.6416 81.2391 62.2847 82.8185 64.3117 82.8185Z" fill="#C4C4C4"/>
</g>
<path d="M45.9464 80C45.9464 80.4142 46.2822 80.75 46.6964 80.75H48.3036C48.7178 80.75 49.0536 80.4142 49.0536 80V74.0536H55C55.4142 74.0536 55.75 73.7178 55.75 73.3036V71.6964C55.75 71.2822 55.4142 70.9464 55 70.9464H49.0536V65C49.0536 64.5858 48.7178 64.25 48.3036 64.25H46.6964C46.2822 64.25 45.9464 64.5858 45.9464 65V70.9464H40C39.5858 70.9464 39.25 71.2822 39.25 71.6964V73.3036C39.25 73.7178 39.5858 74.0536 40 74.0536H45.9464V80Z" fill="#C4C4C4" stroke="#C4C4C4" stroke-width="1.5" stroke-linejoin="round"/>
<path d="M78.9464 80C78.9464 80.4142 79.2822 80.75 79.6964 80.75H81.3036C81.7178 80.75 82.0536 80.4142 82.0536 80V74.0536H88C88.4142 74.0536 88.75 73.7178 88.75 73.3036V71.6964C88.75 71.2822 88.4142 70.9464 88 70.9464H82.0536V65C82.0536 64.5858 81.7178 64.25 81.3036 64.25H79.6964C79.2822 64.25 78.9464 64.5858 78.9464 65V70.9464H73C72.5858 70.9464 72.25 71.2822 72.25 71.6964V73.3036C72.25 73.7178 72.5858 74.0536 73 74.0536H78.9464V80Z" fill="#C4C4C4" stroke="#C4C4C4" stroke-width="1.5" stroke-linejoin="round"/>
<defs>
<clipPath id="clip0_89158_2094">
<rect width="111" height="130" fill="white"/>
</clipPath>
</defs>
</svg>
