<svg width="32" height="32" viewBox="0 0 32 32" fill="none" xmlns="http://www.w3.org/2000/svg">
<circle cx="16" cy="16" r="16" fill="#767676"/>
<path fill-rule="evenodd" clip-rule="evenodd" d="M24.199 10.2994C24.4829 10.5921 24.6845 10.9544 24.7835 11.3499C25.0478 12.8155 25.1762 14.3024 25.1668 15.7916C25.1721 17.2585 25.0438 18.7229 24.7835 20.1666C24.6845 20.5621 24.4829 20.9244 24.199 21.2171C23.9152 21.5097 23.5591 21.7223 23.1668 21.8333C21.7335 22.2166 16.0002 22.2166 16.0002 22.2166C16.0002 22.2166 10.2668 22.2166 8.83348 21.8333C8.44917 21.7281 8.09847 21.5256 7.81527 21.2453C7.53207 20.965 7.32595 20.6165 7.21682 20.2333C6.95246 18.7677 6.82413 17.2808 6.83348 15.7916C6.82618 14.3135 6.9545 12.8379 7.21682 11.3833C7.31581 10.9878 7.51741 10.6254 7.80127 10.3328C8.08513 10.0401 8.44119 9.82757 8.83348 9.71659C10.2668 9.33325 16.0002 9.33325 16.0002 9.33325C16.0002 9.33325 21.7335 9.33325 23.1668 9.68325C23.5591 9.79424 23.9152 10.0068 24.199 10.2994ZM18.9168 15.7917L14.1251 18.5167V13.0667L18.9168 15.7917Z" fill="#F2F2F2"/>
</svg>
