<svg width="24" height="24" viewBox="0 0 24 24" fill="none" xmlns="http://www.w3.org/2000/svg">
<path d="M20.3039 4.81581C19.8241 4.3266 19.2544 3.93853 18.6274 3.67376C18.0004 3.40898 17.3283 3.27271 16.6496 3.27271C15.9709 3.27271 15.2988 3.40898 14.6718 3.67376C14.0448 3.93853 13.4751 4.3266 12.9953 4.81581L11.9996 5.83062L11.0038 4.81581C10.0346 3.82811 8.72016 3.27322 7.34955 3.27322C5.97893 3.27322 4.66446 3.82811 3.69529 4.81581C2.72611 5.80352 2.18164 7.14314 2.18164 8.53997C2.18164 9.9368 2.72611 11.2764 3.69529 12.2641L4.69105 13.2789L11.9996 20.7273L19.3081 13.2789L20.3039 12.2641C20.7839 11.7751 21.1647 11.1946 21.4245 10.5556C21.6843 9.91657 21.818 9.23166 21.818 8.53997C21.818 7.84829 21.6843 7.16338 21.4245 6.52437C21.1647 5.88537 20.7839 5.30479 20.3039 4.81581Z" stroke="#21bf48" stroke-width="1.2" stroke-linecap="round" stroke-linejoin="round" fill="#21bf48"/>
</svg>
