<svg width="423" height="373" viewBox="0 0 423 373" fill="none" xmlns="http://www.w3.org/2000/svg">
<rect width="423" height="373" fill="#767676"/>
<path d="M252.438 206.466H252.308C252.373 206.466 252.373 206.523 252.438 206.523H252.503L252.438 206.466ZM252.438 206.523C251.919 206.523 250.556 206.752 249.129 206.752C244.653 206.752 243.096 204.921 243.096 202.518V186.614H252.243C252.762 186.614 253.152 186.214 253.152 185.642V177.003C253.152 176.546 252.697 176.145 252.243 176.145H243.096V165.39C243.096 164.99 242.771 164.761 242.252 164.761H229.796C229.277 164.761 229.017 165.047 229.017 165.39V176.431C229.017 176.431 222.724 177.804 222.335 177.862C221.881 177.976 221.621 178.319 221.621 178.72V185.642C221.621 186.214 222.075 186.614 222.594 186.614H228.952V203.319C228.952 215.734 238.749 216.992 245.431 216.992C248.48 216.992 252.178 216.134 252.762 215.848C253.087 215.734 253.281 215.39 253.281 215.047V207.438C253.281 206.981 252.957 206.637 252.438 206.523ZM389.069 195.367C389.069 186.157 384.852 184.955 380.441 185.356C377.002 185.527 374.213 187.072 374.213 187.072V204.978C374.213 204.978 377.002 206.695 381.219 206.809C387.123 206.923 389.069 205.036 389.069 195.367ZM403.083 194.566C403.083 212.015 396.66 216.992 385.501 216.992C376.029 216.992 370.969 212.759 370.969 212.759C370.969 212.759 370.774 215.104 370.45 215.39C370.255 215.676 369.996 215.791 369.606 215.791H361.107C360.523 215.791 360.004 215.39 360.004 214.933L360.134 158.468C360.134 158.01 360.588 157.61 361.107 157.61H373.369C373.888 157.61 374.342 158.01 374.342 158.468V177.633C374.342 177.633 379.078 174.944 386.02 174.944L385.955 174.829C392.832 174.829 403.083 177.118 403.083 194.566ZM352.803 176.202H340.671C340.022 176.202 339.698 176.603 339.698 177.175V204.807C339.698 204.807 336.519 206.752 332.172 206.752C327.89 206.752 326.593 205.036 326.593 201.203V177.061C326.593 176.603 326.138 176.202 325.619 176.202H313.293C312.774 176.202 312.32 176.603 312.32 177.061V203.091C312.32 214.246 319.391 217.049 329.123 217.049C337.168 217.049 343.655 213.159 343.655 213.159C343.655 213.159 343.98 215.162 344.11 215.448C344.239 215.676 344.629 215.905 345.018 215.905H352.738C353.387 215.905 353.711 215.505 353.711 215.047L353.841 177.061C353.906 176.603 353.387 176.202 352.803 176.202ZM216.171 176.145H203.91C203.391 176.145 202.936 176.603 202.936 177.175V214.475C202.936 215.505 203.715 215.848 204.688 215.848H215.782C216.95 215.848 217.209 215.39 217.209 214.475V177.003C217.145 176.546 216.69 176.145 216.171 176.145ZM210.073 158.925C205.661 158.925 202.093 162.015 202.093 165.962C202.093 169.852 205.596 172.999 210.073 172.999C214.42 172.999 217.923 169.91 217.923 165.962C217.923 162.072 214.42 158.925 210.073 158.925ZM305.183 157.667H292.986C292.467 157.667 292.013 158.067 292.013 158.525V179.292H272.939V158.525C272.939 158.067 272.485 157.667 271.966 157.667H259.704C259.185 157.667 258.731 158.067 258.731 158.525V214.99C258.731 215.448 259.25 215.848 259.704 215.848H271.966C272.485 215.848 272.939 215.448 272.939 214.99V190.848H292.013L291.883 214.99C291.883 215.448 292.337 215.848 292.856 215.848H305.118C305.637 215.848 306.091 215.448 306.091 214.99V158.525C306.156 158.067 305.702 157.667 305.183 157.667ZM196.384 182.667V211.843C196.384 212.015 196.319 212.415 196.06 212.473C196.06 212.473 188.858 216.992 176.986 216.992C162.648 216.992 145.585 213.045 145.585 186.9C145.585 160.756 160.442 155.379 174.974 155.436C187.561 155.436 192.621 157.953 193.4 158.411C193.594 158.697 193.724 158.868 193.724 159.097L191.388 168.193C191.388 168.651 190.869 169.223 190.221 169.051C188.144 168.479 185.03 167.392 177.699 167.392C169.2 167.392 160.117 169.509 160.117 186.386C160.117 203.205 168.746 205.207 174.974 205.207C180.294 205.207 182.176 204.635 182.176 204.635V192.965H173.677C173.028 192.965 172.574 192.564 172.574 192.106V182.724C172.574 182.267 173.028 181.866 173.677 181.866H195.281C195.93 181.809 196.384 182.209 196.384 182.667Z" fill="white"/>
<path fill-rule="evenodd" clip-rule="evenodd" d="M63.1904 140.962C35.8771 140.962 13.7539 160.47 13.7539 184.555C13.7539 203.834 27.8972 220.139 47.555 225.917C50.0203 226.26 50.9935 225.001 50.9935 223.857C50.9935 222.827 50.9286 219.395 50.9286 215.734C38.537 217.736 35.2932 213.045 34.32 210.642C33.7361 209.383 31.3357 205.493 29.2596 204.463C27.5079 203.663 25.0426 201.603 29.1947 201.546C33.0873 201.489 35.8771 204.692 36.7853 206.008C41.2619 212.587 48.3335 210.756 51.1881 209.612C51.6422 206.809 52.9398 204.864 54.3671 203.777C43.4028 202.69 31.8547 198.914 31.8547 182.267C31.8547 177.518 33.801 173.571 36.9151 170.539C36.3961 169.452 34.7093 164.99 37.4341 158.983C37.4341 158.983 41.5863 157.838 51.0583 163.445C55.0159 162.472 59.2329 161.957 63.385 161.957C67.6021 161.957 71.7542 162.472 75.7117 163.445C85.1838 157.781 89.2711 158.983 89.2711 158.983C91.9959 164.99 90.2442 169.452 89.7901 170.539C92.9691 173.571 94.8505 177.461 94.8505 182.267C94.8505 198.971 83.3024 202.69 72.2732 203.777C74.0898 205.15 75.6468 207.724 75.6468 211.843C75.6468 217.679 75.582 222.37 75.582 223.8C75.582 224.944 76.4903 226.317 78.9556 225.859C99.0675 219.853 112.627 203.205 112.627 184.498C112.627 160.47 90.5037 140.962 63.1904 140.962Z" fill="white"/>
</svg>
