<svg width="174" height="46" viewBox="0 0 174 46" fill="none" xmlns="http://www.w3.org/2000/svg">
<path d="M11.0915 8.6H16.2275V10.232C16.2275 17.96 12.2915 24.92 3.7955 27.368L0.8195 22.376C7.9715 20.36 11.0915 15.272 11.0915 10.232V8.6ZM12.2915 8.6H17.4755V10.232C17.4755 14.792 20.6435 19.448 27.7955 21.32L24.9155 26.264C16.3715 24.008 12.2915 17.528 12.2915 10.232V8.6ZM2.3555 5.432H26.2115V10.424H2.3555V5.432ZM11.0915 0.679998H17.4755V7.4H11.0915V0.679998ZM24.9635 12.68H33.4595V17.816H24.9635V12.68ZM31.9235 0.823999H38.3075V27.656H31.9235V0.823999ZM23.2355 28.424C32.6435 28.424 38.4515 31.496 38.4515 36.824C38.4515 42.152 32.6435 45.272 23.2355 45.272C13.8275 45.272 8.0195 42.152 8.0195 36.824C8.0195 31.496 13.8275 28.424 23.2355 28.424ZM23.2355 33.272C17.4275 33.272 14.4035 34.424 14.4035 36.824C14.4035 39.224 17.4275 40.424 23.2355 40.424C29.0915 40.424 32.1155 39.224 32.1155 36.824C32.1155 34.424 29.0915 33.272 23.2355 33.272ZM55.1038 18.488H61.4398V27.32H55.1038V18.488ZM69.2638 18.488H75.5998V27.32H69.2638V18.488ZM50.2078 2.456H78.3838V7.448H50.2078V2.456ZM45.3118 15.944H85.5358V20.936H45.3118V15.944ZM74.5438 2.456H80.8318V5.48C80.8318 8.648 80.8318 12.728 79.6798 17.816L73.3918 17.24C74.5438 12.152 74.5438 8.6 74.5438 5.48V2.456ZM49.7758 25.16H80.6878V37.16H56.2078V41.96H49.8238V32.84H74.3518V30.104H49.7758V25.16ZM49.8238 40.04H81.8398V44.984H49.8238V40.04ZM90.764 5H112.028V34.472H90.764V5ZM105.74 9.992H97.052V29.432H105.74V9.992ZM117.836 0.823999H124.268V45.272H117.836V0.823999ZM122.828 17.576H130.7V22.856H122.828V17.576ZM148.888 13.112H158.008V18.152H148.888V13.112ZM165.736 0.823999H171.784V30.488H165.736V0.823999ZM156.52 1.544H162.52V26.552H156.52V1.544ZM153.112 28.088H158.584V28.952C158.584 36.872 152.344 43.448 141.256 45.128L138.808 40.136C148.504 38.84 153.112 33.752 153.112 28.952V28.088ZM153.976 28.088H159.448V28.952C159.448 33.752 164.104 38.84 173.704 40.136L171.304 45.128C160.216 43.448 153.976 36.872 153.976 28.952V28.088ZM146.92 4.184H153.064C153.064 15.896 148.792 24.344 136.264 29.816L133.24 25.304C143.608 20.84 146.92 14.696 146.92 6.104V4.184ZM135.64 4.184H148.888V9.272H135.64V4.184ZM147.208 12.632V16.952L134.584 18.344L133.816 13.256L147.208 12.632Z" fill="#21BF48"/>
<path d="M11.0915 8.6V7.6H10.0915V8.6H11.0915ZM16.2275 8.6H17.2275V7.6H16.2275V8.6ZM3.7955 27.368L2.93655 27.8801L3.33141 28.5424L4.07237 28.3289L3.7955 27.368ZM0.8195 22.376L0.548193 21.4135L-0.707499 21.7675L-0.0394469 22.8881L0.8195 22.376ZM12.2915 8.6V7.6H11.2915V8.6H12.2915ZM17.4755 8.6H18.4755V7.6H17.4755V8.6ZM27.7955 21.32L28.6596 21.8233L29.3222 20.6859L28.0487 20.3526L27.7955 21.32ZM24.9155 26.264L24.6602 27.2309L25.3963 27.4252L25.7796 26.7673L24.9155 26.264ZM2.3555 5.432V4.432H1.3555V5.432H2.3555ZM26.2115 5.432H27.2115V4.432H26.2115V5.432ZM26.2115 10.424V11.424H27.2115V10.424H26.2115ZM2.3555 10.424H1.3555V11.424H2.3555V10.424ZM11.0915 0.679998V-0.320002H10.0915V0.679998H11.0915ZM17.4755 0.679998H18.4755V-0.320002H17.4755V0.679998ZM17.4755 7.4V8.4H18.4755V7.4H17.4755ZM11.0915 7.4H10.0915V8.4H11.0915V7.4ZM24.9635 12.68V11.68H23.9635V12.68H24.9635ZM33.4595 12.68H34.4595V11.68H33.4595V12.68ZM33.4595 17.816V18.816H34.4595V17.816H33.4595ZM24.9635 17.816H23.9635V18.816H24.9635V17.816ZM31.9235 0.823999V-0.176001H30.9235V0.823999H31.9235ZM38.3075 0.823999H39.3075V-0.176001H38.3075V0.823999ZM38.3075 27.656V28.656H39.3075V27.656H38.3075ZM31.9235 27.656H30.9235V28.656H31.9235V27.656ZM11.0915 9.6H16.2275V7.6H11.0915V9.6ZM15.2275 8.6V10.232H17.2275V8.6H15.2275ZM15.2275 10.232C15.2275 17.5978 11.5113 24.1041 3.51863 26.4071L4.07237 28.3289C13.0717 25.7359 17.2275 18.3222 17.2275 10.232H15.2275ZM4.65445 26.8559L1.67845 21.8639L-0.0394469 22.8881L2.93655 27.8801L4.65445 26.8559ZM1.09081 23.3385C8.6533 21.2068 12.0915 15.7407 12.0915 10.232H10.0915C10.0915 14.8033 7.2897 19.5132 0.548193 21.4135L1.09081 23.3385ZM12.0915 10.232V8.6H10.0915V10.232H12.0915ZM12.2915 9.6H17.4755V7.6H12.2915V9.6ZM16.4755 8.6V10.232H18.4755V8.6H16.4755ZM16.4755 10.232C16.4755 15.3298 20.0361 20.3227 27.5423 22.2874L28.0487 20.3526C21.2509 18.5733 18.4755 14.2542 18.4755 10.232H16.4755ZM26.9314 20.8166L24.0514 25.7607L25.7796 26.7673L28.6596 21.8233L26.9314 20.8166ZM25.1708 25.2971C17.0946 23.1647 13.2915 17.1046 13.2915 10.232H11.2915C11.2915 17.9514 15.6484 24.8513 24.6602 27.2309L25.1708 25.2971ZM13.2915 10.232V8.6H11.2915V10.232H13.2915ZM2.3555 6.432H26.2115V4.432H2.3555V6.432ZM25.2115 5.432V10.424H27.2115V5.432H25.2115ZM26.2115 9.424H2.3555V11.424H26.2115V9.424ZM3.3555 10.424V5.432H1.3555V10.424H3.3555ZM11.0915 1.68H17.4755V-0.320002H11.0915V1.68ZM16.4755 0.679998V7.4H18.4755V0.679998H16.4755ZM17.4755 6.4H11.0915V8.4H17.4755V6.4ZM12.0915 7.4V0.679998H10.0915V7.4H12.0915ZM24.9635 13.68H33.4595V11.68H24.9635V13.68ZM32.4595 12.68V17.816H34.4595V12.68H32.4595ZM33.4595 16.816H24.9635V18.816H33.4595V16.816ZM25.9635 17.816V12.68H23.9635V17.816H25.9635ZM31.9235 1.824H38.3075V-0.176001H31.9235V1.824ZM37.3075 0.823999V27.656H39.3075V0.823999H37.3075ZM38.3075 26.656H31.9235V28.656H38.3075V26.656ZM32.9235 27.656V0.823999H30.9235V27.656H32.9235ZM23.2355 29.424C27.8535 29.424 31.4693 30.1815 33.8925 31.5038C36.2737 32.8031 37.4515 34.6034 37.4515 36.824H39.4515C39.4515 33.7165 37.7253 31.3169 34.8505 29.7482C32.0177 28.2025 28.0255 27.424 23.2355 27.424V29.424ZM37.4515 36.824C37.4515 39.0462 36.2718 40.859 33.8894 42.1699C31.4664 43.5031 27.8513 44.272 23.2355 44.272V46.272C28.0277 46.272 32.0206 45.4809 34.8536 43.9221C37.7272 42.341 39.4515 39.9298 39.4515 36.824H37.4515ZM23.2355 44.272C18.6197 44.272 15.0046 43.5031 12.5816 42.1699C10.1992 40.859 9.0195 39.0462 9.0195 36.824H7.0195C7.0195 39.9298 8.74378 42.341 11.6174 43.9221C14.4504 45.4809 18.4433 46.272 23.2355 46.272V44.272ZM9.0195 36.824C9.0195 34.6034 10.1973 32.8031 12.5785 31.5038C15.0017 30.1815 18.6175 29.424 23.2355 29.424V27.424C18.4455 27.424 14.4533 28.2025 11.6205 29.7482C8.7457 31.3169 7.0195 33.7165 7.0195 36.824H9.0195ZM23.2355 32.272C20.2948 32.272 17.9336 32.5595 16.2727 33.2185C15.4338 33.5513 14.7149 34.0016 14.2011 34.6133C13.672 35.243 13.4035 35.9941 13.4035 36.824H15.4035C15.4035 36.4539 15.513 36.161 15.7324 35.8997C15.9671 35.6204 16.3672 35.3327 17.0103 35.0775C18.3134 34.5605 20.3683 34.272 23.2355 34.272V32.272ZM13.4035 36.824C13.4035 37.6535 13.6717 38.4057 14.1979 39.0384C14.7097 39.6538 15.4268 40.1111 16.2662 40.4509C17.9286 41.1239 20.2913 41.424 23.2355 41.424V39.424C20.3717 39.424 18.3185 39.1241 17.0168 38.5971C16.3742 38.3369 15.9723 38.0442 15.7356 37.7596C15.5133 37.4923 15.4035 37.1945 15.4035 36.824H13.4035ZM23.2355 41.424C26.203 41.424 28.5774 41.124 30.2455 40.4514C31.0878 40.1118 31.8068 39.6547 32.3197 39.0392C32.8473 38.4061 33.1155 37.6536 33.1155 36.824H31.1155C31.1155 37.1944 31.0057 37.4919 30.7833 37.7588C30.5462 38.0433 30.1432 38.3362 29.4975 38.5966C28.1896 39.124 26.124 39.424 23.2355 39.424V41.424ZM33.1155 36.824C33.1155 35.994 32.8469 35.2426 32.3165 34.6125C31.8016 34.0007 31.0808 33.5506 30.239 33.218C28.5724 32.5594 26.1996 32.272 23.2355 32.272V34.272C26.1274 34.272 28.1946 34.5606 29.504 35.078C30.1502 35.3334 30.5514 35.6213 30.7865 35.9005C31.0061 36.1614 31.1155 36.454 31.1155 36.824H33.1155ZM55.1038 18.488V17.488H54.1038V18.488H55.1038ZM61.4398 18.488H62.4398V17.488H61.4398V18.488ZM61.4398 27.32V28.32H62.4398V27.32H61.4398ZM55.1038 27.32H54.1038V28.32H55.1038V27.32ZM69.2638 18.488V17.488H68.2638V18.488H69.2638ZM75.5998 18.488H76.5998V17.488H75.5998V18.488ZM75.5998 27.32V28.32H76.5998V27.32H75.5998ZM69.2638 27.32H68.2638V28.32H69.2638V27.32ZM50.2078 2.456V1.456H49.2078V2.456H50.2078ZM78.3838 2.456H79.3838V1.456H78.3838V2.456ZM78.3838 7.448V8.448H79.3838V7.448H78.3838ZM50.2078 7.448H49.2078V8.448H50.2078V7.448ZM45.3118 15.944V14.944H44.3118V15.944H45.3118ZM85.5358 15.944H86.5358V14.944H85.5358V15.944ZM85.5358 20.936V21.936H86.5358V20.936H85.5358ZM45.3118 20.936H44.3118V21.936H45.3118V20.936ZM74.5438 2.456V1.456H73.5438V2.456H74.5438ZM80.8318 2.456H81.8318V1.456H80.8318V2.456ZM79.6798 17.816L79.5885 18.8118L80.4615 18.8918L80.6551 18.0368L79.6798 17.816ZM73.3918 17.24L72.4164 17.0192L72.1645 18.1318L73.3005 18.2358L73.3918 17.24ZM49.7758 25.16V24.16H48.7758V25.16H49.7758ZM80.6878 25.16H81.6878V24.16H80.6878V25.16ZM80.6878 37.16V38.16H81.6878V37.16H80.6878ZM56.2078 37.16V36.16H55.2078V37.16H56.2078ZM56.2078 41.96V42.96H57.2078V41.96H56.2078ZM49.8238 41.96H48.8238V42.96H49.8238V41.96ZM49.8238 32.84V31.84H48.8238V32.84H49.8238ZM74.3518 32.84V33.84H75.3518V32.84H74.3518ZM74.3518 30.104H75.3518V29.104H74.3518V30.104ZM49.7758 30.104H48.7758V31.104H49.7758V30.104ZM49.8238 40.04V39.04H48.8238V40.04H49.8238ZM81.8398 40.04H82.8398V39.04H81.8398V40.04ZM81.8398 44.984V45.984H82.8398V44.984H81.8398ZM49.8238 44.984H48.8238V45.984H49.8238V44.984ZM55.1038 19.488H61.4398V17.488H55.1038V19.488ZM60.4398 18.488V27.32H62.4398V18.488H60.4398ZM61.4398 26.32H55.1038V28.32H61.4398V26.32ZM56.1038 27.32V18.488H54.1038V27.32H56.1038ZM69.2638 19.488H75.5998V17.488H69.2638V19.488ZM74.5998 18.488V27.32H76.5998V18.488H74.5998ZM75.5998 26.32H69.2638V28.32H75.5998V26.32ZM70.2638 27.32V18.488H68.2638V27.32H70.2638ZM50.2078 3.456H78.3838V1.456H50.2078V3.456ZM77.3838 2.456V7.448H79.3838V2.456H77.3838ZM78.3838 6.448H50.2078V8.448H78.3838V6.448ZM51.2078 7.448V2.456H49.2078V7.448H51.2078ZM45.3118 16.944H85.5358V14.944H45.3118V16.944ZM84.5358 15.944V20.936H86.5358V15.944H84.5358ZM85.5358 19.936H45.3118V21.936H85.5358V19.936ZM46.3118 20.936V15.944H44.3118V20.936H46.3118ZM74.5438 3.456H80.8318V1.456H74.5438V3.456ZM79.8318 2.456V5.48H81.8318V2.456H79.8318ZM79.8318 5.48C79.8318 8.63927 79.8301 12.6237 78.7044 17.5952L80.6551 18.0368C81.8334 12.8323 81.8318 8.65672 81.8318 5.48H79.8318ZM79.771 16.8202L73.483 16.2442L73.3005 18.2358L79.5885 18.8118L79.771 16.8202ZM74.3671 17.4608C75.5445 12.2606 75.5438 8.61781 75.5438 5.48H73.5438C73.5438 8.58219 73.543 12.0434 72.4164 17.0192L74.3671 17.4608ZM75.5438 5.48V2.456H73.5438V5.48H75.5438ZM49.7758 26.16H80.6878V24.16H49.7758V26.16ZM79.6878 25.16V37.16H81.6878V25.16H79.6878ZM80.6878 36.16H56.2078V38.16H80.6878V36.16ZM55.2078 37.16V41.96H57.2078V37.16H55.2078ZM56.2078 40.96H49.8238V42.96H56.2078V40.96ZM50.8238 41.96V32.84H48.8238V41.96H50.8238ZM49.8238 33.84H74.3518V31.84H49.8238V33.84ZM75.3518 32.84V30.104H73.3518V32.84H75.3518ZM74.3518 29.104H49.7758V31.104H74.3518V29.104ZM50.7758 30.104V25.16H48.7758V30.104H50.7758ZM49.8238 41.04H81.8398V39.04H49.8238V41.04ZM80.8398 40.04V44.984H82.8398V40.04H80.8398ZM81.8398 43.984H49.8238V45.984H81.8398V43.984ZM50.8238 44.984V40.04H48.8238V44.984H50.8238ZM90.764 5V4H89.764V5H90.764ZM112.028 5H113.028V4H112.028V5ZM112.028 34.472V35.472H113.028V34.472H112.028ZM90.764 34.472H89.764V35.472H90.764V34.472ZM105.74 9.992H106.74V8.992H105.74V9.992ZM97.052 9.992V8.992H96.052V9.992H97.052ZM97.052 29.432H96.052V30.432H97.052V29.432ZM105.74 29.432V30.432H106.74V29.432H105.74ZM117.836 0.823999V-0.176001H116.836V0.823999H117.836ZM124.268 0.823999H125.268V-0.176001H124.268V0.823999ZM124.268 45.272V46.272H125.268V45.272H124.268ZM117.836 45.272H116.836V46.272H117.836V45.272ZM122.828 17.576V16.576H121.828V17.576H122.828ZM130.7 17.576H131.7V16.576H130.7V17.576ZM130.7 22.856V23.856H131.7V22.856H130.7ZM122.828 22.856H121.828V23.856H122.828V22.856ZM90.764 6H112.028V4H90.764V6ZM111.028 5V34.472H113.028V5H111.028ZM112.028 33.472H90.764V35.472H112.028V33.472ZM91.764 34.472V5H89.764V34.472H91.764ZM105.74 8.992H97.052V10.992H105.74V8.992ZM96.052 9.992V29.432H98.052V9.992H96.052ZM97.052 30.432H105.74V28.432H97.052V30.432ZM106.74 29.432V9.992H104.74V29.432H106.74ZM117.836 1.824H124.268V-0.176001H117.836V1.824ZM123.268 0.823999V45.272H125.268V0.823999H123.268ZM124.268 44.272H117.836V46.272H124.268V44.272ZM118.836 45.272V0.823999H116.836V45.272H118.836ZM122.828 18.576H130.7V16.576H122.828V18.576ZM129.7 17.576V22.856H131.7V17.576H129.7ZM130.7 21.856H122.828V23.856H130.7V21.856ZM123.828 22.856V17.576H121.828V22.856H123.828ZM148.888 13.112V12.112H147.888V13.112H148.888ZM158.008 13.112H159.008V12.112H158.008V13.112ZM158.008 18.152V19.152H159.008V18.152H158.008ZM148.888 18.152H147.888V19.152H148.888V18.152ZM165.736 0.823999V-0.176001H164.736V0.823999H165.736ZM171.784 0.823999H172.784V-0.176001H171.784V0.823999ZM171.784 30.488V31.488H172.784V30.488H171.784ZM165.736 30.488H164.736V31.488H165.736V30.488ZM156.52 1.544V0.543999H155.52V1.544H156.52ZM162.52 1.544H163.52V0.543999H162.52V1.544ZM162.52 26.552V27.552H163.52V26.552H162.52ZM156.52 26.552H155.52V27.552H156.52V26.552ZM153.112 28.088V27.088H152.112V28.088H153.112ZM158.584 28.088H159.584V27.088H158.584V28.088ZM141.256 45.128L140.358 45.5683L140.681 46.2265L141.406 46.1167L141.256 45.128ZM138.808 40.136L138.676 39.1448L137.299 39.3289L137.91 40.5763L138.808 40.136ZM153.976 28.088V27.088H152.976V28.088H153.976ZM159.448 28.088H160.448V27.088H159.448V28.088ZM173.704 40.136L174.606 40.5693L175.202 39.3291L173.838 39.145L173.704 40.136ZM171.304 45.128L171.154 46.1167L171.885 46.2274L172.206 45.5613L171.304 45.128ZM146.92 4.184V3.184H145.92V4.184H146.92ZM153.064 4.184H154.064V3.184H153.064V4.184ZM136.264 29.816L135.434 30.3727L135.899 31.0669L136.665 30.7324L136.264 29.816ZM133.24 25.304L132.845 24.3855L131.74 24.8613L132.41 25.8607L133.24 25.304ZM135.64 4.184V3.184H134.64V4.184H135.64ZM148.888 4.184H149.888V3.184H148.888V4.184ZM148.888 9.272V10.272H149.888V9.272H148.888ZM135.64 9.272H134.64V10.272H135.64V9.272ZM147.208 12.632H148.208V11.5843L147.162 11.6331L147.208 12.632ZM147.208 16.952L147.318 17.946L148.208 17.8478V16.952H147.208ZM134.584 18.344L133.595 18.4933L133.739 19.4433L134.694 19.338L134.584 18.344ZM133.816 13.256L133.77 12.2571L132.662 12.3087L132.827 13.4053L133.816 13.256ZM148.888 14.112H158.008V12.112H148.888V14.112ZM157.008 13.112V18.152H159.008V13.112H157.008ZM158.008 17.152H148.888V19.152H158.008V17.152ZM149.888 18.152V13.112H147.888V18.152H149.888ZM165.736 1.824H171.784V-0.176001H165.736V1.824ZM170.784 0.823999V30.488H172.784V0.823999H170.784ZM171.784 29.488H165.736V31.488H171.784V29.488ZM166.736 30.488V0.823999H164.736V30.488H166.736ZM156.52 2.544H162.52V0.543999H156.52V2.544ZM161.52 1.544V26.552H163.52V1.544H161.52ZM162.52 25.552H156.52V27.552H162.52V25.552ZM157.52 26.552V1.544H155.52V26.552H157.52ZM153.112 29.088H158.584V27.088H153.112V29.088ZM157.584 28.088V28.952H159.584V28.088H157.584ZM157.584 28.952C157.584 36.2234 151.875 42.5076 141.106 44.1393L141.406 46.1167C152.813 44.3884 159.584 37.5206 159.584 28.952H157.584ZM142.154 44.6877L139.706 39.6957L137.91 40.5763L140.358 45.5683L142.154 44.6877ZM138.941 41.1272C148.866 39.8005 154.112 34.4825 154.112 28.952H152.112C152.112 33.0215 148.143 37.8795 138.676 39.1448L138.941 41.1272ZM154.112 28.952V28.088H152.112V28.952H154.112ZM153.976 29.088H159.448V27.088H153.976V29.088ZM158.448 28.088V28.952H160.448V28.088H158.448ZM158.448 28.952C158.448 34.4828 163.743 39.8003 173.57 41.127L173.838 39.145C164.466 37.8797 160.448 33.0212 160.448 28.952H158.448ZM172.803 39.7027L170.403 44.6947L172.206 45.5613L174.606 40.5693L172.803 39.7027ZM171.454 44.1393C160.685 42.5076 154.976 36.2234 154.976 28.952H152.976C152.976 37.5206 159.747 44.3884 171.154 46.1167L171.454 44.1393ZM154.976 28.952V28.088H152.976V28.952H154.976ZM146.92 5.184H153.064V3.184H146.92V5.184ZM152.064 4.184C152.064 9.92144 151.018 14.7609 148.512 18.8141C146.009 22.8614 141.99 26.224 135.864 28.8996L136.665 30.7324C143.067 27.936 147.447 24.3386 150.213 19.8659C152.975 15.3991 154.064 10.1586 154.064 4.184H152.064ZM137.095 29.2593L134.071 24.7473L132.41 25.8607L135.434 30.3727L137.095 29.2593ZM133.636 26.2225C138.934 23.9414 142.535 21.1854 144.799 17.8089C147.066 14.4272 147.92 10.5298 147.92 6.104H145.92C145.92 10.2702 145.118 13.7408 143.138 16.6951C141.153 19.6546 137.915 22.2026 132.845 24.3855L133.636 26.2225ZM147.92 6.104V4.184H145.92V6.104H147.92ZM135.64 5.184H148.888V3.184H135.64V5.184ZM147.888 4.184V9.272H149.888V4.184H147.888ZM148.888 8.272H135.64V10.272H148.888V8.272ZM136.64 9.272V4.184H134.64V9.272H136.64ZM146.208 12.632V16.952H148.208V12.632H146.208ZM147.099 15.958L134.475 17.35L134.694 19.338L147.318 17.946L147.099 15.958ZM135.573 18.1947L134.805 13.1067L132.827 13.4053L133.595 18.4933L135.573 18.1947ZM133.863 14.2549L147.255 13.6309L147.162 11.6331L133.77 12.2571L133.863 14.2549Z" fill="#21BF48"/>
</svg>
