<svg width="50" height="54" viewBox="0 0 50 54" fill="none" xmlns="http://www.w3.org/2000/svg">
<g clip-path="url(#clip0_88572_2426)">
<path d="M35.0652 0.0127898C25.8455 1.19654 21.9392 6.75445 21.9392 6.75445C21.4534 5.6199 20.8283 4.53622 20.0752 3.52288C20.0205 3.45117 19.9419 3.39644 19.8503 3.36636C19.7587 3.33627 19.6588 3.33235 19.5646 3.35513C18.5098 3.64704 17.5297 4.11906 16.6795 4.7446C16.6311 4.77923 16.5911 4.82206 16.5617 4.87053C16.5323 4.91904 16.514 4.97222 16.508 5.02704C16.5021 5.08181 16.5084 5.13712 16.5269 5.18972C16.5452 5.24231 16.5753 5.29114 16.6152 5.33334C18.0651 6.92943 19.2439 8.7048 20.1145 10.6032C20.1198 10.6063 20.126 10.608 20.1324 10.608C20.1387 10.608 20.1449 10.6063 20.1502 10.6032C21.702 10.3946 23.2691 10.2888 24.8386 10.2867H25.2385C25.9348 9.51439 28.7521 6.46956 31.2088 4.82374C31.2659 4.78136 31.3389 4.75958 31.4134 4.7628C31.4878 4.76602 31.5581 4.79393 31.6104 4.84103C31.6626 4.88813 31.6929 4.95094 31.6952 5.01692C31.6976 5.08294 31.6718 5.14729 31.623 5.19721C30.3839 6.58986 28.7664 8.2262 27.0917 10.3057C27.088 10.3106 27.0858 10.3164 27.0853 10.3223C27.0848 10.3283 27.0861 10.3343 27.0889 10.3397C27.0918 10.3451 27.0962 10.3498 27.1017 10.3532C27.1072 10.3567 27.1136 10.3588 27.1203 10.3595C28.8049 10.468 30.4767 10.6977 32.1194 11.0463C32.1243 11.0485 32.1298 11.0497 32.1354 11.0497C32.141 11.0497 32.1465 11.0485 32.1514 11.0463C36.0793 8.02998 36.7649 3.67797 36.822 1.38328C36.824 1.18645 36.7783 0.99154 36.6878 0.811806C36.5973 0.632068 36.4641 0.471729 36.2974 0.341687C36.1307 0.211646 35.9344 0.114961 35.7218 0.058207C35.5091 0.00145311 35.2852 -0.0140391 35.0652 0.0127898Z" fill="#21BF48"/>
<path d="M24.8452 11.806C11.1264 11.806 0 20.2599 0 30.6889C0 37.1331 4.24919 42.8207 10.7337 46.2295L8.78046 52.0946C8.70372 52.3238 8.70556 52.5683 8.78566 52.7966C8.86582 53.0253 9.02061 53.2277 9.23051 53.3779C9.44041 53.5285 9.69597 53.6207 9.96485 53.642C10.2337 53.6638 10.5037 53.6143 10.7408 53.5L19.7605 49.1827C21.4395 49.4413 23.141 49.5684 24.8452 49.5625C38.5676 49.5625 49.694 41.1084 49.694 30.6794C49.694 20.2504 38.5676 11.806 24.8452 11.806ZM27.4804 43.1657C18.5536 43.1657 11.3121 37.6616 11.3121 30.8756C11.3121 24.0897 18.55 18.5856 27.4804 18.5856C36.4109 18.5856 43.6523 24.0865 43.6523 30.8756C43.6523 37.6648 36.4109 43.1657 27.4804 43.1657Z" fill="#21BF48"/>
<path d="M23.6738 32.1512C24.5868 32.1512 25.327 31.4951 25.327 30.6857C25.327 29.8764 24.5868 29.2203 23.6738 29.2203C22.7607 29.2203 22.0205 29.8764 22.0205 30.6857C22.0205 31.4951 22.7607 32.1512 23.6738 32.1512Z" fill="#21BF48"/>
<path d="M28.9696 34.4015C29.8827 34.4015 30.6229 33.7454 30.6229 32.9361C30.6229 32.1268 29.8827 31.4706 28.9696 31.4706C28.0566 31.4706 27.3164 32.1268 27.3164 32.9361C27.3164 33.7454 28.0566 34.4015 28.9696 34.4015Z" fill="#21BF48"/>
<path d="M34.2646 32.1512C35.1777 32.1512 35.9179 31.4951 35.9179 30.6857C35.9179 29.8764 35.1777 29.2203 34.2646 29.2203C33.3515 29.2203 32.6113 29.8764 32.6113 30.6857C32.6113 31.4951 33.3515 32.1512 34.2646 32.1512Z" fill="#21BF48"/>
</g>
<defs>
<clipPath id="clip0_88572_2426">
<rect width="50" height="54" fill="white"/>
</clipPath>
</defs>
</svg>
