<svg width="22" height="22" viewBox="0 0 22 22" fill="none" xmlns="http://www.w3.org/2000/svg">
<path d="M11.9163 11C11.9163 10.4937 11.5059 10.0833 10.9997 10.0833C10.4934 10.0833 10.083 10.4937 10.083 11C10.083 11.5062 10.4934 11.9166 10.9997 11.9166C11.5059 11.9166 11.9163 11.5062 11.9163 11Z" fill="#c4c4c4" stroke="#c4c4c4" stroke-width="2" stroke-linecap="round" stroke-linejoin="round"/>
<path d="M5.50033 11C5.50033 10.4937 5.08992 10.0833 4.58366 10.0833C4.0774 10.0833 3.66699 10.4937 3.66699 11C3.66699 11.5062 4.0774 11.9166 4.58366 11.9166C5.08992 11.9166 5.50033 11.5062 5.50033 11Z" fill="#c4c4c4" stroke="#c4c4c4" stroke-width="2" stroke-linecap="round" stroke-linejoin="round"/>
<path d="M18.3333 11C18.3333 10.4937 17.9229 10.0833 17.4167 10.0833C16.9104 10.0833 16.5 10.4937 16.5 11C16.5 11.5062 16.9104 11.9166 17.4167 11.9166C17.9229 11.9166 18.3333 11.5062 18.3333 11Z" fill="#c4c4c4" stroke="#c4c4c4" stroke-width="2" stroke-linecap="round" stroke-linejoin="round"/>
</svg>
